<svg version="1.1" xmlns="http://www.w3.org/2000/svg" xmlns:xlink="http://www.w3.org/1999/xlink" width="21.80354" height="4.90695" viewBox="0,0,21.80354,4.90695"><g transform="translate(-229.09823,-177.54653)"><g data-paper-data="{&quot;isPaintingLayer&quot;:true}" fill="#00cccc" fill-rule="nonzero" stroke="none" stroke-width="1" stroke-linecap="butt" stroke-linejoin="miter" stroke-miterlimit="10" stroke-dasharray="" stroke-dashoffset="0" style="mix-blend-mode: normal"><path d="M245.50588,182.45347c-1.11732,0 -2.76204,-0.06894 -4.25288,-0.39723c-0.02462,-0.00545 -0.04891,-0.0109 -0.07354,-0.01641c-0.45483,0.05076 -0.967,0.08757 -1.52486,0.10785c-0.56012,0.0204 -1.38361,0.04936 -2.46659,0.08649c-1.10792,0.04214 -1.93077,0.06178 -2.58646,0.06178c-2.20549,0 -3.45077,-0.18882 -4.10743,-0.34724c-0.44511,-0.10734 -0.71691,-0.23825 -0.78073,-0.37588c-0.18238,-0.39311 0.85071,-0.73236 2.60297,-0.89255c-0.02559,-0.07281 -0.05475,-0.15531 -0.08812,-0.24858c-0.56206,-0.10309 -0.9764,-0.23508 -1.19669,-0.38678c-0.09006,-0.06197 -0.13574,-0.1261 -0.13574,-0.19054v-0.01679c0,-0.07895 0.06835,-0.15594 0.19599,-0.22817c0.09297,-0.07116 0.24297,-0.13921 0.44577,-0.20156c0.10528,-0.03238 0.21802,-0.06305 0.33756,-0.09207c-0.00259,-0.00558 -0.00519,-0.01122 -0.00713,-0.01679c-0.57794,-0.04239 -1.17369,-0.11019 -1.68748,-0.21873c-0.77911,-0.16475 -1.15911,-0.37999 -1.06937,-0.60627c0.21414,-0.50374 2.32211,-0.7406 4.12362,-0.79522c0.7736,-0.02902 2.18734,-0.07033 4.31314,-0.12603c0.33335,-0.00868 0.66249,-0.00817 0.98029,0.00076c0.20118,0.00177 1.7364,0.01103 1.79925,0.01198c2.30429,0.03586 6.09789,-0.06616 7.28389,0.07951c0.02203,0.00266 0.29536,0.63048 0.78777,0.934c0.00356,0.00228 0.00713,0.0045 0.01069,0.00678c0.20733,0.13249 0.27341,0.2795 0.20733,0.46186c-0.04859,0.20587 1.68464,1.51141 2.28299,1.86156c0.02365,0.014 -0.21476,0.21456 -0.19565,0.22882c0.48917,0.36048 -1.04008,0.38702 -1.34297,0.4905c-0.6139,0.20986 -0.36861,0.41649 -1.21089,0.52649c-0.87306,0.11406 -0.75575,0.26716 -2.13774,0.29365c-0.18433,0.00342 -0.34663,0.00482 -0.50699,0.00482z"/></g></g></svg>