<svg version="1.1" xmlns="http://www.w3.org/2000/svg" xmlns:xlink="http://www.w3.org/1999/xlink" width="129" height="129" viewBox="0,0,129,129"><g transform="translate(-175.5,-115.5)"><g data-paper-data="{&quot;isPaintingLayer&quot;:true}" fill-rule="nonzero" stroke-linecap="butt" stroke-linejoin="miter" stroke-miterlimit="10" stroke-dasharray="" stroke-dashoffset="0" style="mix-blend-mode: normal"><path d="M177.5,180c0,-34.5178 27.9822,-62.5 62.5,-62.5c34.5178,0 62.5,27.9822 62.5,62.5c0,34.5178 -27.9822,62.5 -62.5,62.5c-34.5178,0 -62.5,-27.9822 -62.5,-62.5z" fill="none" stroke="#35ff00" stroke-width="4"/><path d="M208,179v-14h24v14z" fill="#34ff01" stroke="none" stroke-width="0"/><path d="M248,179v-14h24v14z" fill="#34ff01" stroke="none" stroke-width="0"/><path d="M203,209.5v-13c0,0 23.01779,5 35,5c12.64839,0 39,-5 39,-5v13c0,0 -24.35161,13 -37,13c-11.98221,0 -37,-13 -37,-13z" fill="#34ff01" stroke="none" stroke-width="0"/></g></g></svg>